<svg width="9" height="16" viewBox="0 0 9 16" fill="none" xmlns="http://www.w3.org/2000/svg">
<path fill-rule="evenodd" clip-rule="evenodd" d="M3.34567 1.26195C4.12283 0.454069 5.17692 0.000135178 6.27609 0H8.40759C8.56462 0 8.71522 0.0648349 8.82625 0.180242C8.93729 0.295649 8.99967 0.452174 8.99967 0.615385V3.56923C8.99967 3.73244 8.93729 3.88897 8.82625 4.00437C8.71522 4.11978 8.56462 4.18462 8.40759 4.18462H6.27609C6.26054 4.18462 6.24514 4.1878 6.23077 4.19398C6.2164 4.20017 6.20335 4.20923 6.19235 4.22066C6.18136 4.23209 6.17263 4.24566 6.16668 4.26059C6.16073 4.27553 6.15767 4.29153 6.15767 4.30769V5.90769H8.40759C8.4976 5.90764 8.58644 5.92892 8.66735 5.96991C8.74826 6.0109 8.81911 6.07053 8.87452 6.14426C8.92993 6.21799 8.96844 6.30388 8.98712 6.39539C9.00579 6.48691 9.00415 6.58165 8.9823 6.67241L8.2718 9.62626C8.23975 9.75944 8.16577 9.87765 8.06163 9.9621C7.95749 10.0466 7.82917 10.0924 7.69709 10.0923H6.15767V15.3846C6.15767 15.5478 6.09529 15.7044 5.98425 15.8198C5.87321 15.9352 5.72262 16 5.56559 16H2.72358C2.56655 16 2.41596 15.9352 2.30492 15.8198C2.19388 15.7044 2.1315 15.5478 2.1315 15.3846V10.0923H0.592084C0.435053 10.0923 0.284454 10.0275 0.173417 9.91207C0.06238 9.79666 0 9.64013 0 9.47692V6.52308C0 6.44226 0.0153146 6.36224 0.0450696 6.28758C0.0748246 6.21292 0.118437 6.14508 0.173417 6.08793C0.228397 6.03079 0.293668 5.98546 0.365503 5.95454C0.437338 5.92361 0.51433 5.90769 0.592084 5.90769H2.1315V4.30769C2.13163 3.16527 2.56838 2.06969 3.34567 1.26195ZM6.27609 1.23077C5.49093 1.23077 4.73794 1.55494 4.18275 2.13198C3.62757 2.70901 3.31567 3.49164 3.31567 4.30769V6.52308C3.31567 6.68629 3.25329 6.84281 3.14225 6.95822C3.03121 7.07363 2.88061 7.13846 2.72358 7.13846H1.18417V8.86154H2.72358C2.88061 8.86154 3.03121 8.92637 3.14225 9.04178C3.25329 9.15719 3.31567 9.31371 3.31567 9.47692V14.7692H4.9735V9.47692C4.9735 9.31371 5.03588 9.15719 5.14692 9.04178C5.25796 8.92637 5.40856 8.86154 5.56559 8.86154H7.23447L7.64893 7.13846H5.56559C5.40856 7.13846 5.25796 7.07363 5.14692 6.95822C5.03588 6.84281 4.9735 6.68629 4.9735 6.52308V4.30769C4.9735 3.94863 5.11074 3.60427 5.35502 3.35038C5.5993 3.09648 5.93062 2.95385 6.27609 2.95385H7.8155V1.23077H6.27609Z" fill="currentColor"/>
</svg>
