<svg width="18" height="15" viewBox="0 0 18 15" fill="none" xmlns="http://www.w3.org/2000/svg">
<path d="M5.26005 10.3633C4.36387 11.032 3.33607 11.5231 2.23726 11.8077C2.11619 11.8495 2.01159 11.9258 1.93767 12.0262C1.86374 12.1266 1.82409 12.2462 1.82409 12.3687C1.82409 12.4913 1.86374 12.6109 1.93767 12.7113C2.01159 12.8117 2.11619 12.888 2.23726 12.9298C10.9168 16.32 16.4356 11.0795 15.5952 5.26599L17 2.4965H15.3695C13.3375 0.12096 7.94418 0.240334 8.83471 5.3018C8.83471 5.3018 5.9499 5.79123 2.26235 2.34132C2.17705 2.26117 2.0694 2.20596 1.95215 2.18224C1.8349 2.15852 1.71297 2.16727 1.60078 2.20746C1.4886 2.24766 1.39087 2.31761 1.31917 2.40904C1.24747 2.50046 1.2048 2.60952 1.19622 2.72332C0.806306 4.24874 1.00144 5.85653 1.74647 7.25718C2.4915 8.65784 3.73748 9.75931 5.26005 10.3633Z" stroke="currentColor" stroke-width="1.5" stroke-linecap="round" stroke-linejoin="round"/>
</svg>
